<?xml version="1.0" encoding="UTF-8" standalone="no"?>
<!-- Created with Inkscape (http://www.inkscape.org/) -->

<svg
   xmlns:dc="http://purl.org/dc/elements/1.1/"
   xmlns:cc="http://creativecommons.org/ns#"
   xmlns:rdf="http://www.w3.org/1999/02/22-rdf-syntax-ns#"
   xmlns:svg="http://www.w3.org/2000/svg"
   xmlns="http://www.w3.org/2000/svg"
   xmlns:sodipodi="http://sodipodi.sourceforge.net/DTD/sodipodi-0.dtd"
   xmlns:inkscape="http://www.inkscape.org/namespaces/inkscape"
   width="12.152578cm"
   height="12.040736cm"
   viewBox="0 0 430.60317 426.64025"
   id="svg2"
   version="1.1"
   inkscape:version="0.91 r13725"
   sodipodi:docname="RubikTerminology.svg"
   inkscape:export-filename="/home/elgaton/Rubik.png"
   inkscape:export-xdpi="90"
   inkscape:export-ydpi="90">
  <defs
     id="defs4" />
  <sodipodi:namedview
     id="base"
     pagecolor="#ffffff"
     bordercolor="#666666"
     borderopacity="1.0"
     inkscape:pageopacity="0.0"
     inkscape:pageshadow="2"
     inkscape:zoom="1"
     inkscape:cx="204.61187"
     inkscape:cy="217.30871"
     inkscape:document-units="px"
     inkscape:current-layer="layer1"
     showgrid="true"
     units="cm"
     fit-margin-top="0"
     fit-margin-left="0"
     fit-margin-right="0"
     fit-margin-bottom="0"
     inkscape:window-width="1366"
     inkscape:window-height="721"
     inkscape:window-x="0"
     inkscape:window-y="0"
     inkscape:window-maximized="1">
    <inkscape:grid
       type="axonomgrid"
       id="grid4000"
       units="cm"
       empspacing="5"
       originx="123.24376"
       originy="142.30967" />
  </sodipodi:namedview>
  <metadata
     id="metadata7">
    <rdf:RDF>
      <cc:Work
         rdf:about="">
        <dc:format>image/svg+xml</dc:format>
        <dc:type
           rdf:resource="http://purl.org/dc/dcmitype/StillImage" />
        <dc:title />
      </cc:Work>
    </rdf:RDF>
  </metadata>
  <g
     inkscape:label="Livello 1"
     inkscape:groupmode="layer"
     id="layer1"
     transform="translate(105.52723,-768.03167)">
    <path
       style="fill:none;fill-rule:evenodd;stroke:#000000;stroke-width:1px;stroke-linecap:butt;stroke-linejoin:miter;stroke-opacity:1"
       d="m 109.77435,1052.3623 -92.057814,-53.14966 0,-106.29921 92.057814,-53.14961 92.05782,53.14961 0,106.29921 z"
       id="path4030"
       inkscape:connector-curvature="0" />
    <path
       style="fill:none;fill-rule:evenodd;stroke:#000000;stroke-width:1px;stroke-linecap:butt;stroke-linejoin:miter;stroke-opacity:1"
       d="m 17.716536,892.91343 92.057814,53.14961 92.05782,-53.14961"
       id="path4032"
       inkscape:connector-curvature="0" />
    <path
       style="fill:none;fill-rule:evenodd;stroke:#000000;stroke-width:1px;stroke-linecap:butt;stroke-linejoin:miter;stroke-opacity:1"
       d="m 109.77435,946.06304 0,106.29926"
       id="path4034"
       inkscape:connector-curvature="0" />
    <path
       style="fill:none;fill-rule:evenodd;stroke:#000000;stroke-width:1px;stroke-linecap:butt;stroke-linejoin:miter;stroke-opacity:1"
       d="m 48.402475,875.1969 92.057815,53.1496 0,106.2992"
       id="path4036"
       inkscape:connector-curvature="0" />
    <path
       style="fill:none;fill-rule:evenodd;stroke:#000000;stroke-width:1px;stroke-linecap:butt;stroke-linejoin:miter;stroke-opacity:1"
       d="m 79.088415,857.48036 92.057815,53.14961 0,106.29923"
       id="path4038"
       inkscape:connector-curvature="0" />
    <path
       style="fill:none;fill-rule:evenodd;stroke:#000000;stroke-width:1px;stroke-linecap:butt;stroke-linejoin:miter;stroke-opacity:1"
       d="m 48.402475,1016.9292 0,-106.29923 92.057815,-53.14961"
       id="path4040"
       inkscape:connector-curvature="0" />
    <path
       style="fill:none;fill-rule:evenodd;stroke:#000000;stroke-width:1px;stroke-linecap:butt;stroke-linejoin:miter;stroke-opacity:1"
       d="m 79.088415,1034.6457 0,-106.2992 92.057815,-53.14961"
       id="path4042"
       inkscape:connector-curvature="0" />
    <path
       style="fill:none;fill-rule:evenodd;stroke:#000000;stroke-width:1px;stroke-linecap:butt;stroke-linejoin:miter;stroke-opacity:1"
       d="m 17.716536,928.3465 92.057814,53.14961 92.05782,-53.14961"
       id="path4044"
       inkscape:connector-curvature="0" />
    <path
       style="fill:none;fill-rule:evenodd;stroke:#000000;stroke-width:1px;stroke-linecap:butt;stroke-linejoin:miter;stroke-opacity:1"
       d="m 17.716536,963.77957 92.057814,53.14963 92.05782,-53.14963"
       id="path4046"
       inkscape:connector-curvature="0" />
    <path
       style="fill:none;fill-rule:evenodd;stroke:#000000;stroke-width:1px;stroke-linecap:butt;stroke-linejoin:miter;stroke-opacity:1"
       d="m -105.02723,928.34652 92.05782,-53.14961 0,-106.29921 -92.05782,53.14961 z"
       id="path4048"
       inkscape:connector-curvature="0" />
    <path
       style="fill:none;fill-rule:evenodd;stroke:#000000;stroke-width:1px;stroke-linecap:butt;stroke-linejoin:miter;stroke-opacity:1"
       d="m -105.02723,857.48038 92.05782,-53.14961"
       id="path4050"
       inkscape:connector-curvature="0" />
    <path
       style="fill:none;fill-rule:evenodd;stroke:#000000;stroke-width:1px;stroke-linecap:butt;stroke-linejoin:miter;stroke-opacity:1"
       d="m -105.02723,892.91345 92.05782,-53.14961"
       id="path4052"
       inkscape:connector-curvature="0" />
    <path
       style="fill:none;fill-rule:evenodd;stroke:#000000;stroke-width:1px;stroke-linecap:butt;stroke-linejoin:miter;stroke-opacity:1"
       d="m -74.341288,804.33077 0,106.29921"
       id="path4054"
       inkscape:connector-curvature="0" />
    <path
       style="fill:none;fill-rule:evenodd;stroke:#000000;stroke-width:1px;stroke-linecap:butt;stroke-linejoin:miter;stroke-opacity:1"
       d="m -43.65535,786.61424 0,106.29921"
       id="path4056"
       inkscape:connector-curvature="0" />
    <path
       style="fill:none;fill-rule:evenodd;stroke:#000000;stroke-width:1px;stroke-linecap:butt;stroke-linejoin:miter;stroke-opacity:1"
       d="m 324.57593,928.34652 -92.05782,-53.14961 0,0 0,-106.29921 92.05782,53.14961 z"
       id="path4058"
       inkscape:connector-curvature="0" />
    <path
       style="fill:none;fill-rule:evenodd;stroke:#000000;stroke-width:1px;stroke-linecap:butt;stroke-linejoin:miter;stroke-opacity:1"
       d="m 232.51811,839.76384 92.05782,53.14961"
       id="path4060"
       inkscape:connector-curvature="0" />
    <path
       style="fill:none;fill-rule:evenodd;stroke:#000000;stroke-width:1px;stroke-linecap:butt;stroke-linejoin:miter;stroke-opacity:1"
       d="M 324.57593,857.48038 232.51811,804.33077"
       id="path4062"
       inkscape:connector-curvature="0" />
    <path
       style="fill:none;fill-rule:evenodd;stroke:#000000;stroke-width:1px;stroke-linecap:butt;stroke-linejoin:miter;stroke-opacity:1"
       d="m 263.20405,892.91345 0,-106.29921"
       id="path4064"
       inkscape:connector-curvature="0" />
    <path
       style="fill:#ff0000;fill-rule:evenodd;stroke:#000000;stroke-width:1px;stroke-linecap:butt;stroke-linejoin:miter;stroke-opacity:1"
       d="m 293.88999,910.62998 0,-106.29921"
       id="path4066"
       inkscape:connector-curvature="0" />
    <path
       style="fill:#ff0000;stroke:#000000;stroke-width:0.5"
       d="m 192.80846,274.22117 -14.375,-8.31075 0,-16.71749 c 0,-11.25747 0.16836,-16.66136 0.51548,-16.54565 0.28352,0.0945 6.79956,3.7695 14.4801,8.16666 l 13.96462,7.99484 0.0199,16.875 c 0.011,9.28125 -0.0363,16.86896 -0.1051,16.86158 -0.0687,-0.007 -6.59375,-3.75327 -14.5,-8.32419 z"
       id="path4068"
       inkscape:connector-curvature="0"
       transform="translate(-159.94882,662.0211)" />
    <path
       style="fill:#ff0000;stroke:#000000;stroke-width:0.5"
       d="m 192.80846,309.66303 -14.375,-8.33914 0,-16.85092 0,-16.85092 9.125,5.27792 c 5.01875,2.90286 11.5412,6.65738 14.49432,8.34337 l 5.36932,3.06544 0.006,16.875 c 0.003,9.28125 -0.0506,16.86226 -0.11932,16.84669 -0.0687,-0.0155 -6.59375,-3.78092 -14.5,-8.36744 z"
       id="path4070"
       inkscape:connector-curvature="0"
       transform="translate(-159.94882,662.0211)" />
    <path
       style="fill:#ff0000;stroke:#000000;stroke-width:0.5"
       d="m 192.81566,345.14161 -14.36781,-8.33283 -0.007,-16.88511 -0.007,-16.88512 2.39087,1.38512 c 1.31498,0.76181 7.83998,4.5307 14.5,8.3753 l 12.10913,6.99018 0,16.88482 c 0,9.28665 -0.0563,16.86584 -0.125,16.84264 -0.0687,-0.0232 -6.59051,-3.79194 -14.4928,-8.375 z"
       id="path4072"
       inkscape:connector-curvature="0"
       transform="translate(-159.94882,662.0211)" />
    <path
       style="fill:#ff0000;stroke:#000000;stroke-width:0.5"
       d="m 223.30846,362.69806 -14.375,-8.32958 0,-16.65485 c 0,-9.16017 0.14984,-16.65485 0.33298,-16.65485 0.18313,0 6.82063,3.74563 14.74999,8.32362 l 14.41703,8.32363 0,16.67637 c 0,9.17201 -0.16875,16.66937 -0.375,16.66081 -0.20625,-0.009 -6.84375,-3.76388 -14.75,-8.34515 z"
       id="path4074"
       inkscape:connector-curvature="0"
       transform="translate(-159.94882,662.0211)" />
    <path
       style="fill:#ff0000;stroke:#000000;stroke-width:0.5"
       d=""
       id="path4076"
       inkscape:connector-curvature="0"
       transform="translate(-159.94882,662.0211)" />
    <path
       style="fill:#ff0000;stroke:#000000;stroke-width:0.5"
       d="m 223.55846,327.45579 -14.625,-8.49677 0,-16.70012 c 0,-9.18506 0.12332,-16.70012 0.27405,-16.70012 0.15072,0 6.78822,3.76119 14.75,8.35819 l 14.47595,8.35818 0,16.89182 c 0,9.2905 -0.0563,16.86791 -0.125,16.83871 -0.0687,-0.0292 -6.70625,-3.87666 -14.75,-8.54989 z"
       id="path4078"
       inkscape:connector-curvature="0"
       transform="translate(-159.94882,662.0211)" />
    <path
       style="fill:#ff0000;stroke:#000000;stroke-width:0.5"
       d="m 223.68346,292.06538 -14.5,-8.43235 -0.1317,-16.83103 c -0.0771,-9.84977 0.0553,-16.76096 0.31916,-16.66212 0.24797,0.0929 6.88596,3.8814 14.75109,8.4189 l 14.30023,8.25 0.006,16.875 c 0.003,9.28125 -0.0506,16.86127 -0.11939,16.84448 -0.0687,-0.0168 -6.65,-3.82508 -14.625,-8.46288 z"
       id="path4080"
       inkscape:connector-curvature="0"
       transform="translate(-159.94882,662.0211)" />
    <path
       style="fill:#ff0000;stroke:#000000;stroke-width:0.5"
       d="m 254.30846,309.72117 -14.375,-8.31075 0,-16.71749 c 0,-11.25747 0.16836,-16.66136 0.51548,-16.54565 0.28352,0.0945 6.79956,3.7695 14.4801,8.16666 l 13.96462,7.99484 0.0199,16.875 c 0.0109,9.28125 -0.0364,16.86896 -0.1051,16.86158 -0.0688,-0.007 -6.59375,-3.75327 -14.5,-8.32419 z"
       id="path4082"
       inkscape:connector-curvature="0"
       transform="translate(-159.94882,662.0211)" />
    <path
       style="fill:#ff0000;stroke:#000000;stroke-width:0.5"
       d="m 254.30846,345.17557 -14.375,-8.33378 0,-16.86273 0,-16.86274 8.125,4.72137 c 4.46875,2.59675 10.99297,6.35256 14.49826,8.34623 l 6.37326,3.62486 0.002,16.875 c 9.5e-4,9.28125 -0.0545,16.86388 -0.12326,16.85029 -0.0688,-0.0136 -6.59375,-3.77492 -14.5,-8.3585 l -1e-5,0 z"
       id="path4084"
       inkscape:connector-curvature="0"
       transform="translate(-159.94882,662.0211)" />
    <path
       style="fill:#ff0000;stroke:#000000;stroke-width:0.5"
       d="m 254.31566,380.64161 -14.36781,-8.33283 -0.007,-16.90334 -0.007,-16.90334 2.125,1.26965 c 1.16875,0.69831 7.69325,4.47981 14.49888,8.40334 l 12.37388,7.13369 0.001,16.875 c 6e-4,9.28125 -0.0551,16.85603 -0.12388,16.83283 -0.0688,-0.0232 -6.59051,-3.79194 -14.4928,-8.375 l 2e-5,0 z"
       id="path4086"
       inkscape:connector-curvature="0"
       transform="translate(-159.94882,662.0211)" />
    <path
       style="fill:none;fill-rule:evenodd;stroke:#000000;stroke-width:1px;stroke-linecap:butt;stroke-linejoin:miter;stroke-opacity:1"
       d="m 109.77435,1087.7954 92.05782,53.1496 -92.05782,53.1496 -92.05782,-53.1496 z"
       id="path4088"
       inkscape:connector-curvature="0" />
    <path
       style="fill:none;fill-rule:evenodd;stroke:#000000;stroke-width:1px;stroke-linecap:butt;stroke-linejoin:miter;stroke-opacity:1"
       d="m 48.40247,1158.6615 92.05782,-53.1496"
       id="path4090"
       inkscape:connector-curvature="0" />
    <path
       style="fill:none;fill-rule:evenodd;stroke:#000000;stroke-width:1px;stroke-linecap:butt;stroke-linejoin:miter;stroke-opacity:1"
       d="m 79.08841,1176.378 92.05782,-53.1496"
       id="path4092"
       inkscape:connector-curvature="0" />
    <path
       style="fill:none;fill-rule:evenodd;stroke:#000000;stroke-width:1px;stroke-linecap:butt;stroke-linejoin:miter;stroke-opacity:1"
       d="m 48.40247,1123.2284 92.05782,53.1496"
       id="path4094"
       inkscape:connector-curvature="0" />
    <path
       style="fill:#ffff00;fill-rule:evenodd;stroke:#000000;stroke-width:1px;stroke-linecap:butt;stroke-linejoin:miter;stroke-opacity:1"
       d="m 79.08841,1105.5119 92.05782,53.1496"
       id="path4096"
       inkscape:connector-curvature="0" />
    <path
       style="fill:#ffff00;stroke:#000000;stroke-width:0.5"
       d="m 139.39509,381.41433 c -10.9048,-6.32171 -14.21815,-8.46288 -13.75,-8.88559 0.92248,-0.83294 27.76372,-16.21236 28.29495,-16.21236 0.45864,0 28.02625,15.79605 28.65554,16.41943 0.25063,0.24827 -27.10137,16.4528 -28.55776,16.91888 -0.15177,0.0486 -6.741,-3.65959 -14.64273,-8.24036 z"
       id="path4098"
       inkscape:connector-curvature="0"
       transform="translate(-105.52723,768.03169)" />
    <path
       style="fill:#ffff00;stroke:#000000;stroke-width:0.5"
       d="m 169.8224,363.49299 c -12.14152,-7.0063 -14.27651,-8.40441 -13.49224,-8.8354 0.51244,-0.28161 7.0837,-4.06786 14.6028,-8.41389 l 13.67109,-7.90186 14.45325,8.34507 c 11.0766,6.39545 14.30739,8.47695 13.82891,8.90955 -0.86006,0.7776 -27.74817,16.21992 -28.24206,16.21992 -0.21879,0 -6.88858,-3.74552 -14.82175,-8.32339 z"
       id="path4100"
       inkscape:connector-curvature="0"
       transform="translate(-105.52723,768.03169)" />
    <path
       style="fill:#ffff00;stroke:#000000;stroke-width:0.5"
       d="m 200.81658,345.96365 c -11.47522,-6.62 -14.24095,-8.41315 -13.71434,-8.89161 0.80365,-0.73019 27.7119,-16.25566 28.17378,-16.25566 0.40055,0 29.29496,16.62326 29.11425,16.74974 -0.35941,0.25154 -27.27784,15.68642 -28.16405,16.1491 -0.89214,0.46578 -3.02751,-0.60838 -15.40964,-7.75157 z"
       id="path4102"
       inkscape:connector-curvature="0"
       transform="translate(-105.52723,768.03169)" />
    <path
       style="fill:#ffff00;stroke:#000000;stroke-width:0.5"
       d="m 232.22722,364.14899 c -7.16906,-4.17043 -13.52969,-7.92011 -14.13473,-8.33261 -1.05557,-0.71965 -0.51359,-1.08847 13.39553,-9.1155 l 14.49561,-8.36551 14.48576,8.36551 c 7.96717,4.60103 14.32977,8.51626 14.13912,8.70051 -0.83196,0.80407 -28.26153,16.41077 -28.77566,16.3726 -0.31404,-0.0233 -6.43657,-3.45456 -13.60563,-7.625 z"
       id="path4104"
       inkscape:connector-curvature="0"
       transform="translate(-105.52723,768.03169)" />
    <path
       style="fill:#ffff00;stroke:#000000;stroke-width:0.5"
       d="m 201.00747,381.51247 c -7.83508,-4.51762 -14.29265,-8.37861 -14.35015,-8.57997 -0.19758,-0.69184 28.34494,-16.7268 29.19403,-16.40097 1.54871,0.5943 28.14158,16.0369 28.15102,16.34743 0.007,0.21986 -24.31415,14.48362 -28.4949,16.71178 -0.13992,0.0746 -6.66492,-3.56065 -14.5,-8.07827 z"
       id="path4106"
       inkscape:connector-curvature="0"
       transform="translate(-105.52723,768.03169)" />
    <path
       style="fill:#ffff00;stroke:#000000;stroke-width:0.5"
       d="m 169.87431,398.98504 c -7.91316,-4.57061 -14.32566,-8.36337 -14.25,-8.42835 0.0757,-0.065 6.62503,-3.86777 14.55415,-8.45064 l 14.41659,-8.3325 14.48219,8.34764 c 7.9652,4.59121 14.30273,8.52035 14.08341,8.73143 -0.59061,0.56841 -28.20259,16.46555 -28.5778,16.45319 -0.17654,-0.006 -6.79538,-3.75016 -14.70854,-8.32077 z"
       id="path4108"
       inkscape:connector-curvature="0"
       transform="translate(-105.52723,768.03169)" />
    <path
       style="fill:#ffff00;stroke:#000000;stroke-width:0.5"
       d="m 200.88687,416.89503 c -7.90625,-4.58036 -14.37088,-8.44058 -14.36584,-8.57828 0.007,-0.2031 27.89497,-16.43937 28.64937,-16.67981 0.35582,-0.11341 28.84147,16.38328 28.84147,16.70276 0,0.15948 -6.01875,3.74985 -13.375,7.97861 -7.35625,4.22876 -13.825,7.96224 -14.375,8.29664 -0.88229,0.53642 -2.69208,-0.37229 -15.375,-7.71992 z"
       id="path4110"
       inkscape:connector-curvature="0"
       transform="translate(-105.52723,768.03169)" />
    <path
       style="fill:#ffff00;stroke:#000000;stroke-width:0.5"
       d="m 231.34985,399.01751 c -12.64514,-7.30393 -14.28681,-8.39103 -13.49242,-8.93453 0.49744,-0.34034 7.03582,-4.14638 14.52973,-8.45787 l 13.62529,-7.83907 13.62471,7.84902 c 7.49359,4.31696 14.02754,8.12007 14.51989,8.45137 0.77868,0.52398 -0.91293,1.64765 -13,8.63539 -7.64235,4.41816 -14.23609,8.16317 -14.65276,8.32223 -0.45066,0.17204 -6.59027,-3.0798 -15.15444,-8.02654 z"
       id="path4112"
       inkscape:connector-curvature="0"
       transform="translate(-105.52723,768.03169)" />
    <path
       style="fill:#ffff00;stroke:#000000;stroke-width:0.5"
       d="m 262.50627,381.58067 c -7.82388,-4.51374 -14.28221,-8.38849 -14.35183,-8.61054 -0.11322,-0.36106 25.86912,-15.6173 27.95915,-16.41698 0.57484,-0.21995 5.41072,2.3053 14.87605,7.76812 7.71338,4.4517 14.12701,8.26013 14.2525,8.46318 0.12549,0.20305 -5.78123,3.82368 -13.12605,8.04584 -7.34482,4.22217 -13.81105,7.96479 -14.3694,8.31693 -0.91102,0.57457 -2.47467,-0.20175 -15.24042,-7.56655 z"
       id="path4114"
       inkscape:connector-curvature="0"
       transform="translate(-105.52723,768.03169)" />
    <path
       style="fill:#0000ff;stroke:#000000;stroke-width:0.5"
       d="m 216.13016,195.27894 0.13171,-16.91766 14,-8.11909 c 7.7,-4.46549 14.16875,-8.12655 14.375,-8.13568 0.20625,-0.009 0.375,7.49199 0.375,16.66917 l 0,16.68578 -12.875,7.41558 c -7.08125,4.07858 -13.60927,7.84399 -14.50671,8.36758 l -1.63172,0.95198 0.13172,-16.91766 z"
       id="path4116"
       inkscape:connector-curvature="0"
       transform="translate(-105.52723,768.03169)" />
    <path
       style="fill:#0000ff;stroke:#000000;stroke-width:0.5"
       d="m 216.02228,230.77241 0.0104,-16.93251 14.48959,-8.32447 14.48959,-8.32447 0,16.84137 0,16.84137 -13.375,7.70133 c -7.35625,4.23574 -13.88125,8.02276 -14.5,8.41561 l -1.125,0.71427 0.0104,-16.9325 z"
       id="path4118"
       inkscape:connector-curvature="0"
       transform="translate(-105.52723,768.03169)" />
    <path
       style="fill:#0000ff;stroke:#000000;stroke-width:0.5"
       d="m 216.0138,266.19216 0.002,-16.85226 12.37307,-7.12986 c 6.80519,-3.92143 13.32932,-7.70294 14.49807,-8.40335 l 2.125,-1.27347 -0.004,16.90334 -0.004,16.90334 -1.87115,1.07185 c -1.02913,0.58951 -7.5524,4.34802 -14.49615,8.35225 l -12.625,7.28042 0.002,-16.85226 z"
       id="path4120"
       inkscape:connector-curvature="0"
       transform="translate(-105.52723,768.03169)" />
    <path
       style="fill:#0000ff;stroke:#000000;stroke-width:0.5"
       d="m 246.51187,248.41322 0,-16.67669 14.43231,-8.32331 c 7.93777,-4.57782 14.57527,-8.32332 14.75,-8.32332 0.17473,0 0.31769,7.50241 0.31769,16.67202 l 0,16.67202 -14.45386,8.32798 c -7.94962,4.58039 -14.58712,8.32798 -14.75,8.32798 -0.16287,0 -0.29614,-7.5045 -0.29614,-16.67668 z"
       id="path4122"
       inkscape:connector-curvature="0"
       transform="translate(-105.52723,768.03169)" />
    <path
       style="fill:#0000ff;stroke:#000000;stroke-width:0.5"
       d="m 246.51187,213.17675 0,-16.84989 14.4731,-8.36848 c 7.96021,-4.60266 14.59771,-8.36848 14.75,-8.36848 0.1523,0 0.2769,7.51872 0.2769,16.70826 l 0,16.70826 -5.625,3.23367 c -3.09375,1.77851 -9.73125,5.60806 -14.75,8.51011 l -9.125,5.27644 0,-16.84989 z"
       id="path4124"
       inkscape:connector-curvature="0"
       transform="translate(-105.52723,768.03169)" />
    <path
       style="fill:#0000ff;stroke:#000000;stroke-width:0.5"
       d="m 246.51774,177.74441 0.006,-16.90451 14.30993,-8.25 c 7.87046,-4.5375 14.50834,-8.326 14.75084,-8.4189 0.25076,-0.0961 0.38411,7.09679 0.30921,16.67863 l -0.13171,16.84753 -14,8.08346 c -7.7,4.4459 -14.28125,8.26005 -14.625,8.47588 -0.49545,0.31108 -0.62378,-3.11138 -0.61913,-16.51209 z"
       id="path4126"
       inkscape:connector-curvature="0"
       transform="translate(-105.52723,768.03169)" />
    <path
       style="fill:#0000ff;stroke:#000000;stroke-width:0.5"
       d="m 277.63016,159.77362 0.13171,-16.92299 14,-8.11527 c 7.7,-4.4634 14.16875,-8.12207 14.375,-8.13037 0.20625,-0.008 0.375,7.48826 0.375,16.65901 l 0,16.67409 -12.875,7.4283 c -7.08125,4.08557 -13.60927,7.85623 -14.50671,8.37926 l -1.63172,0.95095 0.13172,-16.92298 z"
       id="path4128"
       inkscape:connector-curvature="0"
       transform="translate(-105.52723,768.03169)" />
    <path
       style="fill:#0000ff;stroke:#000000;stroke-width:0.5"
       d="m 277.52228,195.27241 0.0104,-16.93251 14.48959,-8.32447 14.48959,-8.32447 0,16.84137 0,16.84137 -13.375,7.70133 c -7.35625,4.23574 -13.88125,8.02276 -14.5,8.41561 l -1.125,0.71427 0.0104,-16.9325 z"
       id="path4130"
       inkscape:connector-curvature="0"
       transform="translate(-105.52723,768.03169)" />
    <path
       style="fill:#0000ff;stroke:#000000;stroke-width:0.5"
       d="m 277.51299,230.69506 10e-4,-16.85516 12.37388,-7.13368 c 6.80564,-3.92353 13.33013,-7.70504 14.49888,-8.40334 l 2.125,-1.26966 -0.005,16.90334 -0.005,16.90334 -3.61969,2.0705 c -1.99083,1.13877 -8.51344,4.89859 -14.49469,8.35515 l -10.875,6.28465 0.001,-16.85514 z"
       id="path4132"
       inkscape:connector-curvature="0"
       transform="translate(-105.52723,768.03169)" />
    <path
       style="fill:#00ff00;stroke:#000000;stroke-width:0.5"
       d="m 1.0118723,142.12618 0,-16.67669 14.4323107,-8.32331 c 7.93777,-4.57783 14.57527,-8.32332 14.75,-8.32332 0.174729,0 0.317689,7.50241 0.317689,16.67202 l 0,16.67202 -14.45386,8.32798 c -7.9496227,4.58039 -14.5871227,8.32798 -14.7499997,8.32798 -0.162877,0 -0.29614,-7.50451 -0.29614,-16.67668 z"
       id="path4134"
       inkscape:connector-curvature="0"
       transform="translate(-105.52723,768.03169)" />
    <path
       style="fill:#00ff00;stroke:#000000;stroke-width:0.5"
       d="m 1.0118723,106.88591 0,-16.866679 14.4759537,-8.358184 c 7.961775,-4.597001 14.599275,-8.358184 14.75,-8.358184 0.150725,0 0.274046,7.519265 0.274046,16.709478 l 0,16.709479 -7.375,4.23065 c -4.05625,2.32686 -10.69375,6.15879 -14.7499997,8.51538 l -7.375,4.28473 0,-16.86667 z"
       id="path4136"
       inkscape:connector-curvature="0"
       transform="translate(-105.52723,768.03169)" />
    <path
       style="fill:#00ff00;stroke:#000000;stroke-width:0.5"
       d="m 1.0177362,71.457371 0.00586,-16.904508 14.3099278,-8.25 c 7.870461,-4.5375 14.508339,-8.326006 14.75084,-8.418902 0.250764,-0.09606 0.384113,7.096789 0.309208,16.678629 l -0.131704,16.847529 -14,8.083459 C 8.5618723,83.939481 1.9806223,87.753628 1.6368723,87.969458 1.1414164,88.280543 1.0130877,84.858073 1.0177362,71.457371 Z"
       id="path4138"
       inkscape:connector-curvature="0"
       transform="translate(-105.52723,768.03169)" />
    <path
       style="fill:#00ff00;stroke:#000000;stroke-width:0.5"
       d="m 32.031771,53.477251 0.0199,-16.924388 13.96462,-7.99484 c 7.680541,-4.397162 14.196587,-8.072162 14.480101,-8.166667 0.347123,-0.115707 0.515481,5.288593 0.515481,16.546963 l 0,16.71879 -12.875,7.418795 c -7.08125,4.080337 -13.60625,7.847856 -14.5,8.372264 l -1.625,0.95347 0.0199,-16.924387 z"
       id="path4140"
       inkscape:connector-curvature="0"
       transform="translate(-105.52723,768.03169)" />
    <path
       style="fill:#00ff00;stroke:#000000;stroke-width:0.5"
       d="m 32.013613,88.985368 0.0017,-16.932505 6.37326,-3.624863 c 3.505292,-1.993675 10.029509,-5.749478 14.498259,-8.34623 l 8.125,-4.721367 0,16.863127 0,16.863128 -13.375,7.701334 c -7.35625,4.235738 -13.88125,8.022758 -14.5,8.415608 l -1.125,0.71427 0.0017,-16.932502 z"
       id="path4142"
       inkscape:connector-curvature="0"
       transform="translate(-105.52723,768.03169)" />
    <path
       style="fill:#00ff00;stroke:#000000;stroke-width:0.5"
       d="m 32.011872,124.38768 0,-16.86406 12.375,-7.11524 c 6.80625,-3.913391 13.33125,-7.688315 14.5,-8.388725 l 2.125,-1.273472 -0.0053,16.903337 -0.0053,16.90334 -3.61969,2.06764 c -1.990829,1.13721 -8.51344,4.89445 -14.49469,8.34944 l -10.875,6.28179 0,-16.86405 z"
       id="path4144"
       inkscape:connector-curvature="0"
       transform="translate(-105.52723,768.03169)" />
    <path
       style="fill:#00ff00;stroke:#000000;stroke-width:0.5"
       d="m 62.511872,106.62648 0,-16.676374 14.417028,-8.323622 c 7.929365,-4.577991 14.566865,-8.323621 14.75,-8.323621 0.183135,0 0.332972,7.495026 0.332972,16.655613 l 0,16.655614 -14.440538,8.34439 c -7.942295,4.58941 -14.579795,8.34438 -14.749999,8.34438 -0.170205,0 -0.309463,-7.50437 -0.309463,-16.67638 z"
       id="path4146"
       inkscape:connector-curvature="0"
       transform="translate(-105.52723,768.03169)" />
    <path
       style="fill:#00ff00;stroke:#000000;stroke-width:0.5"
       d="m 62.511872,71.361384 0,-16.842153 14.475954,-8.358184 c 7.961775,-4.597001 14.599275,-8.358184 14.75,-8.358184 0.150725,0 0.274046,7.51457 0.274046,16.699044 l 0,16.699045 -14.75,8.501292 -14.75,8.501294 0,-16.842154 z"
       id="path4148"
       inkscape:connector-curvature="0"
       transform="translate(-105.52723,768.03169)" />
    <path
       style="fill:#00ff00;stroke:#000000;stroke-width:0.5"
       d="m 62.517486,35.957371 0.0056,-16.904508 14.300229,-8.25 c 7.865126,-4.5375002 14.503116,-8.3260058 14.75109,-8.4189015 0.263852,-0.098844 0.396233,6.8127218 0.319158,16.6630345 l -0.131704,16.831936 -14,8.102367 c -7.7,4.456302 -14.28125,8.277464 -14.625,8.491474 -0.495389,0.308415 -0.623836,-3.116501 -0.619386,-16.515402 z"
       id="path4150"
       inkscape:connector-curvature="0"
       transform="translate(-105.52723,768.03169)" />
    <path
       style="fill:#ff6600;stroke:#000000;stroke-width:0.5"
       d="m 353.38687,44.308296 -14.375,-8.332872 0,-16.649942 c 0,-9.157468 0.14765,-16.6499421 0.32811,-16.6499421 0.18046,0 6.69882,3.65625 14.48524,8.1250001 l 14.15713,8.125 0.0148,16.875 c 0.008,9.28125 -0.0415,16.867265 -0.11024,16.857815 -0.0687,-0.0095 -6.59375,-3.76698 -14.5,-8.350059 z"
       id="path4152"
       inkscape:connector-curvature="0"
       transform="translate(-105.52723,768.03169)" />
    <path
       style="fill:#ff6600;stroke:#000000;stroke-width:0.5"
       d="m 353.38687,79.770838 -14.375,-8.335512 0,-16.854329 0,-16.854329 10.875,6.281795 c 5.98125,3.454988 12.50386,7.212234 14.49469,8.349436 l 3.61969,2.067641 0.005,16.875 c 0.003,9.28125 -0.0509,16.85943 -0.11969,16.840405 -0.0687,-0.019 -6.59375,-3.785576 -14.5,-8.370107 z"
       id="path4154"
       inkscape:connector-curvature="0"
       transform="translate(-105.52723,768.03169)" />
    <path
       style="fill:#ff6600;stroke:#000000;stroke-width:0.5"
       d="m 353.39877,115.25304 -14.36311,-8.3275 -0.0119,-16.932505 -0.0119,-16.932505 1.125,0.714274 c 0.61875,0.39285 7.14375,4.179873 14.5,8.415607 l 13.375,7.701333 0,16.891896 c 0,9.29055 -0.0562,16.87052 -0.125,16.8444 -0.0687,-0.0261 -6.5884,-3.79487 -14.4881,-8.375 z"
       id="path4156"
       inkscape:connector-curvature="0"
       transform="translate(-105.52723,768.03169)" />
    <path
       style="fill:#ff6600;stroke:#000000;stroke-width:0.5"
       d="m 383.88687,132.79233 -14.375,-8.33378 0,-16.84098 0,-16.840972 14.48959,8.324471 14.4896,8.324471 0.0104,16.875 c 0.006,9.28125 -0.0458,16.86387 -0.1146,16.85028 -0.0687,-0.0136 -6.59375,-3.77491 -14.5,-8.35849 z"
       id="path4158"
       inkscape:connector-curvature="0"
       transform="translate(-105.52723,768.03169)" />
    <path
       style="fill:#ff6600;stroke:#000000;stroke-width:0.5"
       d="m 383.88687,97.3289 -14.375,-8.302736 0,-16.675312 c 0,-9.171422 0.13677,-16.675312 0.30392,-16.675312 0.67853,0 28.3004,16.190052 28.4973,16.703171 0.11702,0.304941 0.15336,7.911598 0.0808,16.903682 l -0.13199,16.349237 -14.375,-8.30273 z"
       id="path4160"
       inkscape:connector-curvature="0"
       transform="translate(-105.52723,768.03169)" />
    <path
       style="fill:#ff6600;stroke:#000000;stroke-width:0.5"
       d="m 383.88687,61.889542 -14.375,-8.29533 0,-16.709336 c 0,-9.190135 0.10868,-16.709336 0.2415,-16.709336 0.38978,0 27.44667,15.605332 28.14037,16.23024 0.49021,0.441597 0.6023,4.291794 0.5,17.174148 l -0.13187,16.604942 -14.375,-8.295328 z"
       id="path4162"
       inkscape:connector-curvature="0"
       transform="translate(-105.52723,768.03169)" />
    <path
       style="fill:#ff6600;stroke:#000000;stroke-width:0.5"
       d="m 414.76187,79.737525 -14.5,-8.409687 -0.1317,-16.868051 -0.1317,-16.868051 3.42516,1.916902 c 1.88384,1.054296 8.51615,4.841902 14.73846,8.416902 l 11.31329,6.5 0.0182,16.875 c 0.01,9.28125 -0.038,16.868625 -0.10675,16.860835 -0.0687,-0.0078 -6.65,-3.798522 -14.625,-8.42385 z"
       id="path4164"
       inkscape:connector-curvature="0"
       transform="translate(-105.52723,768.03169)" />
    <path
       style="fill:#ff6600;stroke:#000000;stroke-width:0.5"
       d="m 414.76187,115.19567 -14.5,-8.42427 -0.1317,-16.841831 c -0.0749,-9.578549 0.0584,-16.768991 0.30921,-16.67293 0.2425,0.09289 6.88038,3.881401 14.75084,8.418901 l 14.30992,8.25 0.006,16.875 c 0.003,9.28125 -0.0504,16.86249 -0.11914,16.84719 -0.0687,-0.0153 -6.65,-3.81872 -14.625,-8.45206 z"
       id="path4166"
       inkscape:connector-curvature="0"
       transform="translate(-105.52723,768.03169)" />
    <path
       style="fill:#ff6600;stroke:#000000;stroke-width:0.5"
       d="m 414.63687,150.58017 -14.625,-8.50321 0,-16.70071 c 0,-9.18539 0.12461,-16.70071 0.2769,-16.70071 0.1523,0 6.7898,3.76582 14.75,8.36848 l 14.4731,8.36848 0,16.88152 c 0,9.28484 -0.0562,16.86078 -0.125,16.83544 -0.0687,-0.0254 -6.70625,-3.87252 -14.75,-8.54929 z"
       id="path4168"
       inkscape:connector-curvature="0"
       transform="translate(-105.52723,768.03169)" />
    <path
       style="fill:#ff8080;stroke:#000000"
       d="m 138.41187,167.4445 -13.5,-7.82674 -0.27539,-15.64311 c -0.18045,-10.24985 0.0799,-15.6431 0.7552,-15.6431 1.6471,0 26.17472,14.23911 26.64681,15.46937 0.23524,0.61303 0.30299,7.94464 0.15055,16.29246 l -0.27717,15.17786 -13.5,-7.82674 z"
       id="path3431"
       inkscape:connector-curvature="0"
       transform="translate(-105.52723,768.03167)" />
    <path
       style="fill:#ff8080;stroke:#000000"
       d="m 137.67738,202.56035 -13.23449,-7.7288 -0.0155,-15.75 c -0.009,-8.6625 0.25723,-15.75 0.59058,-15.75 0.33334,0 6.63334,3.42676 14,7.61503 l 13.39391,7.61503 0,15.88497 c 0,8.73673 -0.3375,15.87543 -0.75,15.86377 -0.4125,-0.0117 -6.70552,-3.49916 -13.98449,-7.75 z"
       id="path3433"
       inkscape:connector-curvature="0"
       transform="translate(-105.52723,768.03167)" />
    <path
       style="fill:#ff8080;stroke:#000000"
       d="m 138.41187,238.40783 -13.5,-7.86263 -0.275,-16.15539 -0.27501,-16.15539 2.27501,1.19537 c 9.33301,4.9039 25.01872,14.3733 25.38351,15.32394 0.2452,0.63898 0.3211,7.99165 0.16866,16.33926 l -0.27717,15.17746 -13.5,-7.86262 z"
       id="path3435"
       inkscape:connector-curvature="0"
       transform="translate(-105.52723,768.03167)" />
    <path
       style="fill:#ff8080;stroke:#000000"
       d="m 169.16187,256.16509 -13.75,-7.98675 0,-15.99977 0,-15.99976 7.25,4.08797 c 3.9875,2.24838 10.28449,5.77025 13.99331,7.82637 l 6.74331,3.7384 0.007,16.25 c 0.004,8.9375 -0.10581,16.20956 -0.24331,16.16014 -0.1375,-0.0494 -6.4375,-3.68389 -14,-8.0766 l -1e-5,0 z"
       id="path3437"
       inkscape:connector-curvature="0"
       transform="translate(-105.52723,768.03167)" />
    <path
       style="fill:#ff8080;stroke:#000000"
       d="m 168.68101,220.53271 -13.23086,-7.70116 -0.0191,-15.75 c -0.0105,-8.6625 0.26799,-15.75 0.61892,-15.75 0.35094,0 6.65094,3.41853 14,7.59673 l 13.36194,7.59673 0,15.90327 c 0,8.7468 -0.3375,15.88129 -0.75,15.85443 -0.4125,-0.0269 -6.70389,-3.51436 -13.98086,-7.75 z"
       id="path3439"
       inkscape:connector-curvature="0"
       transform="translate(-105.52723,768.03167)" />
    <path
       style="fill:#ff8080;stroke:#000000"
       d="m 169.41187,185.40783 -13.5,-7.86263 -0.27513,-16.18137 c -0.15132,-8.89976 0.0737,-15.99592 0.5,-15.76926 9.00689,4.78877 26.58441,15.37938 26.90284,16.20918 0.23464,0.61148 0.3019,7.94163 0.14946,16.28924 l -0.27717,15.17746 -13.5,-7.86262 z"
       id="path3441"
       inkscape:connector-curvature="0"
       transform="translate(-105.52723,768.03167)" />
    <path
       style="fill:#ff8080;stroke:#000000"
       d="m 200.16187,203.12838 -13.75,-8.00393 0,-15.98251 0,-15.98252 6.75,3.73185 c 3.7125,2.05252 9.71614,5.44442 13.34143,7.53757 l 6.59143,3.80571 0.63914,16.2346 c 0.35152,8.92903 0.53538,16.33102 0.40857,16.44888 -0.12681,0.11785 -6.41807,-3.38749 -13.98057,-7.78965 z"
       id="path3443"
       inkscape:connector-curvature="0"
       transform="translate(-105.52723,768.03167)" />
    <path
       style="fill:#ff8080;stroke:#000000"
       d="m 199.68968,238.49531 -13.22219,-7.66376 -0.0278,-16.30668 -0.0278,-16.30668 4.25,2.56912 c 2.3375,1.41302 8.41238,4.92602 13.49974,7.80668 l 9.24973,5.23756 2.7e-4,7.09637 c 1.4e-4,3.90301 0.29264,11.21551 0.65,16.25 0.37293,5.2538 0.26642,9.11689 -0.25,9.06739 -0.49486,-0.0474 -6.84973,-3.53494 -14.12193,-7.75 z"
       id="path3445"
       inkscape:connector-curvature="0"
       transform="translate(-105.52723,768.03167)" />
    <path
       style="fill:#ff8080;stroke:#000000"
       d="m 199.16187,273.63347 -12.75,-7.49029 0,-16.0128 c 0,-12.41356 0.28097,-15.89902 1.25,-15.50659 0.6875,0.27842 6.65,3.65752 13.25,7.50911 l 12,7.00288 0.27477,16.09789 c 0.15113,8.85383 -0.0739,16.05112 -0.5,15.99398 -0.42612,-0.0571 -6.51227,-3.47452 -13.52477,-7.59418 z"
       id="path3447"
       inkscape:connector-curvature="0"
       transform="translate(-105.52723,768.03167)" />
    <path
       style="fill:#ffe680;stroke:#000000"
       d="m 139.92735,380.82127 c -7.07816,-4.13066 -13.00447,-7.64538 -13.16959,-7.8105 -0.36852,-0.36852 26.23495,-15.67922 27.24381,-15.67922 1.0312,0 27.45588,15.28775 27.07794,15.66569 -1.15785,1.15785 -26.27414,15.33431 -27.16764,15.33431 -0.61334,0 -6.90637,-3.37963 -13.98452,-7.51028 z"
       id="path3451"
       inkscape:connector-curvature="0"
       transform="translate(-105.52723,768.03167)" />
    <path
       style="fill:#ffe680;stroke:#000000"
       d="m 170.67746,398.59705 c -7.27892,-4.23318 -12.90392,-8.0244 -12.5,-8.42494 0.40393,-0.40054 6.52783,-4.07957 13.60867,-8.17562 l 12.87426,-7.44738 12.12574,7.01992 c 6.66916,3.86095 12.73241,7.58474 13.4739,8.27509 1.10331,1.02721 -1.08481,2.63843 -12.04767,8.8713 -7.36771,4.18887 -13.59938,7.60762 -13.84816,7.59722 -0.24878,-0.0104 -6.40781,-3.48242 -13.68674,-7.71559 z"
       id="path3453"
       inkscape:connector-curvature="0"
       transform="translate(-105.52723,768.03167)" />
    <path
       style="fill:#ffe680;stroke:#000000"
       d="m 210.7306,421.53784 c -9.51637,-5.13238 -22.31219,-12.70759 -22.30765,-13.20629 0.003,-0.275 6.04252,-3.98341 13.42226,-8.24091 l 13.41773,-7.74091 13.54575,7.74091 c 7.45016,4.2575 13.55856,7.96591 13.5742,8.24091 0.0156,0.275 -4.13393,2.8569 -9.22128,5.73756 -5.08736,2.88065 -11.08649,6.34848 -13.3314,7.70629 l -4.08165,2.46873 -5.01796,-2.70629 z"
       id="path3455"
       inkscape:connector-curvature="0"
       transform="translate(-105.52723,768.03167)" />
    <path
       style="fill:#ffe680;stroke:#000000"
       d="m 232.94026,399.01959 c -7.09666,-4.02157 -13.0367,-7.73407 -13.20009,-8.25 -0.26011,-0.82137 23.80472,-15.28563 26.01819,-15.63834 1.50252,-0.23942 26.65518,14.6687 26.34442,15.61448 -0.27276,0.83016 -24.47002,15.45295 -25.7252,15.54615 -0.29385,0.0218 -6.34065,-3.25071 -13.43732,-7.27229 z"
       id="path3457"
       inkscape:connector-curvature="0"
       transform="translate(-105.52723,768.03167)" />
    <path
       style="fill:#ffe680;stroke:#000000"
       d="m 201.61405,381.04188 c -6.7638,-3.96568 -12.31327,-7.66033 -12.33217,-8.21033 -0.0296,-0.86135 24.65715,-15.4644 26.187,-15.4905 0.6895,-0.0118 25.12818,13.92423 26.27088,14.98079 0.8635,0.79841 -24.56034,16.03948 -26.63984,15.97004 -0.65343,-0.0218 -6.72207,-3.28432 -13.48587,-7.25 z"
       id="path3459"
       inkscape:connector-curvature="0"
       transform="translate(-105.52723,768.03167)" />
    <path
       style="fill:#ffe680;stroke:#000000"
       d="m 171.72247,363.70287 c -7.04583,-4.11114 -13.12742,-7.79084 -13.51463,-8.1771 -0.38722,-0.38626 5.38841,-4.22531 12.83473,-8.53123 l 13.53877,-7.82893 11.66527,6.74205 c 14.56975,8.42074 15.16667,8.79145 15.15894,9.41444 -0.007,0.53523 -0.42587,0.78778 -16.68308,10.05023 l -10.18941,5.80536 -12.81059,-7.47482 z"
       id="path3461"
       inkscape:connector-curvature="0"
       transform="translate(-105.52723,768.03167)" />
    <path
       style="fill:#ffe680;stroke:#000000"
       d=""
       id="path3463"
       inkscape:connector-curvature="0"
       transform="translate(-105.52723,768.03167)" />
    <path
       style="fill:#ffe680;stroke:#000000"
       d="m 212.35311,351.55142 c -6.46276,-3.30446 -23.94126,-13.67425 -23.93045,-14.19765 0.006,-0.28722 6.04709,-3.96069 13.42478,-8.16326 l 13.41398,-7.64104 12.32523,6.99672 c 6.77887,3.8482 12.89066,7.53068 13.58175,8.18329 0.9869,0.93194 -1.159,2.55682 -10,7.57204 -6.19109,3.51202 -12.18297,6.97587 -13.31529,7.69746 -1.74184,1.11001 -2.58848,1.04112 -5.5,-0.44756 z"
       id="path3465"
       inkscape:connector-curvature="0"
       transform="translate(-105.52723,768.03167)" />
    <path
       style="fill:#ffe680;stroke:#000000"
       d="m 232.63784,363.54882 c -7.27428,-4.2166 -13.22597,-7.96938 -13.22597,-8.33952 0,-0.58007 25.5521,-15.87775 26.52099,-15.87775 1.03177,0 26.47901,15.26639 26.47901,15.88537 0,0.40234 -4.6125,3.36322 -10.25,6.57974 -5.6375,3.21652 -11.61081,6.65157 -13.27403,7.63345 l -3.02403,1.78524 -13.22597,-7.66653 z"
       id="path3467"
       inkscape:connector-curvature="0"
       transform="translate(-105.52723,768.03167)" />
    <path
       style="fill:#ffe680;stroke:#000000"
       d="m 263.35486,381.21914 c -6.84364,-3.91182 -12.78235,-7.42368 -13.19712,-7.80413 -0.91207,-0.83659 23.90936,-15.51203 26.23641,-15.51203 0.90196,0 7.54986,3.34926 14.77311,7.4428 l 13.13318,7.44279 -13.19429,7.76647 c -7.25685,4.27155 -13.66993,7.76872 -14.25129,7.77149 -0.58135,0.003 -6.65635,-3.19556 -13.5,-7.10739 z"
       id="path3469"
       inkscape:connector-curvature="0"
       transform="translate(-105.52723,768.03167)" />
    <path
       style="fill:#b3ff80;stroke:#000000"
       d="m 1.4153509,141.58155 0.00348,-15.75 13.1750072,-7.5 c 7.246254,-4.125 13.544688,-7.65 13.996519,-7.83333 0.451832,-0.18334 0.821512,6.86063 0.821512,15.65326 l 0,15.9866 -13.361936,7.59674 c -7.3490653,4.1782 -13.6490653,7.59673 -14.0000003,7.59673 -0.3509351,0 -0.6364973,-7.0875 -0.6345828,-15.75 z"
       id="path3471"
       inkscape:connector-curvature="0"
       transform="translate(-105.52723,768.03167)" />
    <path
       style="fill:#b3ff80;stroke:#000000"
       d="m 1.41187,106.49426 0,-16.003951 14,-8.018957 14,-8.018957 -0.02176,16.189577 -0.02176,16.189578 -13.138394,7.5 c -7.2261169,4.125 -13.5163247,7.65 -13.9782396,7.83333 C 1.7898004,122.34822 1.41187,115.29644 1.41187,106.49426 Z"
       id="path3473"
       inkscape:connector-curvature="0"
       transform="translate(-105.52723,768.03167)" />
    <path
       style="fill:#b3ff80;stroke:#000000"
       d="m 1.4185597,70.581549 0.00669,-15.75 6.7433102,-3.738399 C 11.87738,49.03703 18.17437,45.515164 22.16187,43.26678 l 7.25,-4.087971 0,15.999442 0,15.999442 -13.061948,7.576928 c -7.1840709,4.16731 -13.4840709,7.576928 -13.9999996,7.576928 -0.5446471,0 -0.9352468,-6.605317 -0.9313627,-15.75 z"
       id="path3475"
       inkscape:connector-curvature="0"
       transform="translate(-105.52723,768.03167)" />
    <path
       style="fill:#b3ff80;stroke:#000000"
       d="m 32.41856,53.176571 0.0067,-16.345022 6.743311,-3.738399 c 3.70882,-2.05612 10.017152,-5.584277 14.018514,-7.840349 l 7.275205,-4.101949 -0.275205,16.201184 -0.275204,16.201185 -9.060012,5.23567 c -4.983007,2.879618 -11.170507,6.472502 -13.75,7.984186 l -4.689988,2.748516 0.0067,-16.345022 z"
       id="path3477"
       inkscape:connector-curvature="0"
       transform="translate(-105.52723,768.03167)" />
    <path
       style="fill:#b3ff80;stroke:#000000"
       d="m 32.41187,88.559213 0,-15.939003 14,-8.078391 14,-8.078391 -0.01437,16.184061 -0.01437,16.18406 -13.07705,7.5 c -7.192377,4.125001 -13.485911,7.650001 -13.985631,7.833331 -0.520714,0.19104 -0.908581,-6.470905 -0.908581,-15.605667 z"
       id="path3479"
       inkscape:connector-curvature="0"
       transform="translate(-105.52723,768.03167)" />
    <path
       style="fill:#b3ff80;stroke:#000000"
       d="m 32.43363,124.19656 0.02176,-16.36501 13.138394,-7.5 c 7.226117,-4.125001 13.516325,-7.650001 13.97824,-7.833334 0.461915,-0.183334 0.839845,6.866598 0.839845,15.666514 l 0,15.99985 -11.75,6.73587 c -6.4625,3.70473 -12.7625,7.39406 -14,8.1985 l -2.25,1.46262 0.02176,-16.36501 z"
       id="path3481"
       inkscape:connector-curvature="0"
       transform="translate(-105.52723,768.03167)" />
    <path
       style="fill:#b3ff80;stroke:#000000"
       d="m 63.636826,106.21939 0.275044,-16.225815 7.29212,-4.305627 c 4.010666,-2.368094 10.209529,-5.937134 13.775252,-7.9312 l 6.483131,-3.625574 -0.275251,16.211024 -0.275252,16.211022 -9.5,5.46541 c -5.225,3.00597 -11.42377,6.58167 -13.775044,7.94599 l -4.275044,2.48059 0.275044,-16.22582 z"
       id="path3483"
       inkscape:connector-curvature="0"
       transform="translate(-105.52723,768.03167)" />
    <path
       style="fill:#b3ff80;stroke:#000000"
       d="m 63.41187,70.551644 0,-15.779906 13.341698,-7.720094 c 7.337934,-4.246052 13.637934,-7.720095 14,-7.720095 0.362066,0 0.658302,7.104013 0.658302,15.786696 l 0,15.786697 -13.47868,7.713303 c -7.413274,4.242317 -13.713274,7.713304 -14,7.713304 -0.286726,0 -0.52132,-7.100957 -0.52132,-15.779905 z"
       id="path3485"
       inkscape:connector-curvature="0"
       transform="translate(-105.52723,768.03167)" />
    <path
       style="fill:#b3ff80;stroke:#000000"
       d="m 63.41187,35.399446 0,-16.002471 9.25,-5.393928 c 5.0875,-2.96666 11.3875,-6.6241407 14,-8.1277345 l 4.75,-2.7338071 0,16.0568366 0,16.056836 -11.75,6.898381 c -6.4625,3.794109 -12.7625,7.427125 -14,8.073369 l -2.25,1.174989 0,-16.002471 z"
       id="path3487"
       inkscape:connector-curvature="0"
       transform="translate(-105.52723,768.03167)" />
    <path
       style="fill:#ffb380;stroke:#000000"
       d="m 354.07684,43.946998 c -7.05927,-4.062032 -13.25859,-7.809072 -13.77628,-8.326756 -0.53232,-0.532324 -0.82121,-7.699553 -0.66497,-16.497401 l 0.27628,-15.5561577 13,7.4578737 c 7.15,4.10183 13.34932,7.795749 13.77627,8.208708 0.42696,0.412959 0.65196,7.804227 0.5,16.42504 l -0.27627,15.674206 -12.83503,-7.385513 z"
       id="path3489"
       inkscape:connector-curvature="0"
       transform="translate(-105.52723,768.03167)" />
    <path
       style="fill:#ffb380;stroke:#000000"
       d="m 352.66187,78.588006 -13.25,-7.705725 0,-15.775366 c 0,-8.676451 0.25144,-15.775366 0.55875,-15.775366 0.30731,0 6.60379,3.4875 13.99218,7.75 l 13.43344,7.75 0.008,15.75 c 0.004,8.6625 -0.32968,15.741491 -0.74218,15.731091 -0.4125,-0.0104 -6.7125,-3.486485 -14,-7.724634 l 1e-5,0 z"
       id="path3491"
       inkscape:connector-curvature="0"
       transform="translate(-105.52723,768.03167)" />
    <path
       style="fill:#ffb380;stroke:#000000"
       d="m 353.41187,114.46108 -13.5,-7.84345 -0.2753,-16.252887 -0.2753,-16.252889 4.7753,2.748633 c 2.62642,1.511748 8.9378,5.1759 14.0253,8.14256 l 9.25,5.393928 0,15.967285 c 0,8.78201 -0.1125,15.96121 -0.25,15.95378 -0.1375,-0.007 -6.325,-3.54306 -13.75,-7.85696 z"
       id="path3493"
       inkscape:connector-curvature="0"
       transform="translate(-105.52723,768.03167)" />
    <path
       style="fill:#ffb380;stroke:#000000"
       d="m 384.16187,132.16047 -13.75,-7.98315 0,-15.95807 0,-15.958069 2.25,1.181987 c 1.2375,0.650093 7.24526,4.039884 13.35057,7.532872 l 11.10057,6.35088 0.5647,16.25231 c 0.31058,8.93878 0.49032,16.32254 0.39942,16.40836 -0.0909,0.0858 -6.35276,-3.43638 -13.91526,-7.82712 z"
       id="path3495"
       inkscape:connector-curvature="0"
       transform="translate(-105.52723,768.03167)" />
    <path
       style="fill:#ffb380;stroke:#000000"
       d="m 413.69758,149.48897 -13.21429,-7.65742 -0.0357,-16.18958 -0.0357,-16.18958 14,8.01896 14,8.01896 0,15.92062 c 0,8.75634 -0.3375,15.87896 -0.75,15.82804 -0.4125,-0.0509 -6.69643,-3.53842 -13.96429,-7.75 z"
       id="path3497"
       inkscape:connector-curvature="0"
       transform="translate(-105.52723,768.03167)" />
    <path
       style="fill:#ffb380;stroke:#000000"
       d="m 414.72289,114.51717 c -8.29659,-4.83468 -13.39202,-8.42751 -13.73634,-9.68562 -0.30106,-1.1 -0.55352,-8.187501 -0.56103,-15.750001 -0.01,-9.927058 0.31532,-13.75 1.16956,-13.75 0.65076,0 6.93754,3.2625 13.97063,7.25 l 12.78742,7.25 0.0365,9.5 c 0.0201,5.225001 0.32335,12.537501 0.67397,16.250001 0.35802,3.79082 0.24531,6.72177 -0.25711,6.68562 -0.49203,-0.0354 -6.82964,-3.52291 -14.08358,-7.75 z"
       id="path3499"
       inkscape:connector-curvature="0"
       transform="translate(-105.52723,768.03167)" />
    <path
       style="fill:#ffb380;stroke:#000000"
       d="m 383.68101,96.532708 -13.23086,-7.701159 -0.0191,-15.856989 c -0.0175,-14.481093 0.1275,-15.800717 1.67087,-15.208471 0.92951,0.356685 7.00451,3.793373 13.5,7.637085 l 11.80999,6.988566 0,15.969905 c 0,8.783447 -0.1125,15.947925 -0.25,15.921065 -0.1375,-0.0269 -6.20389,-3.51436 -13.48086,-7.750002 z"
       id="path3501"
       inkscape:connector-curvature="0"
       transform="translate(-105.52723,768.03167)" />
    <path
       style="fill:#ffb380;stroke:#000000"
       d="m 383.41187,60.888003 -12.5,-7.36129 -0.27532,-16.211295 -0.27531,-16.211295 3.27531,1.910628 c 1.80143,1.050845 7.88782,4.579515 13.52532,7.841488 l 10.25,5.930862 0,15.772224 c 0,8.674723 -0.3375,15.753716 -0.75,15.731096 -0.4125,-0.02262 -6.375,-3.353708 -13.25,-7.402418 z"
       id="path3503"
       inkscape:connector-curvature="0"
       transform="translate(-105.52723,768.03167)" />
    <path
       style="fill:#ffb380;stroke:#000000"
       d="m 415.56238,79.387844 c -7.34221,-4.268114 -13.74782,-8.389327 -14.23468,-9.158251 -1.04171,-1.645218 -1.24384,-30.898044 -0.2135,-30.898044 0.38628,0 6.62215,3.365683 13.85749,7.479296 l 13.15517,7.479296 0.53252,16.270704 c 0.29288,8.948887 0.4695,16.341917 0.3925,16.428955 -0.077,0.08704 -6.14728,-3.333843 -13.4895,-7.601956 z"
       id="path3505"
       inkscape:connector-curvature="0"
       transform="translate(-105.52723,768.03167)" />
    <path
       style="fill:#8080ff;stroke:#000000"
       d="m 216.41187,195.39357 c 0,-11.43532 0.34629,-16.10371 1.25,-16.85161 1.42917,-1.18277 25.72361,-15.21041 26.34286,-15.21041 0.22393,0 0.40714,7.16428 0.40714,15.92062 l 0,15.92062 -14,8.01896 -14,8.01895 0,-15.81713 z"
       id="path3507"
       inkscape:connector-curvature="0"
       transform="translate(-105.52723,768.03167)" />
    <path
       style="fill:#8080ff;stroke:#000000"
       d="m 216.63666,230.30486 0.27521,-16.21016 13.5,-7.76582 13.5,-7.76581 0.27717,15.09225 c 0.15244,8.30074 0.0746,15.62008 -0.17294,16.2652 -0.34896,0.90938 -23.01506,14.63101 -26.84715,16.25277 -0.44413,0.18795 -0.68366,-6.95284 -0.53229,-15.86843 z"
       id="path3509"
       inkscape:connector-curvature="0"
       transform="translate(-105.52723,768.03167)" />
    <path
       style="fill:#8080ff;stroke:#000000"
       d="m 216.41968,265.58155 0.008,-15.75 13.43345,-7.75 c 7.38839,-4.2625 13.68487,-7.75 13.99218,-7.75 0.30731,0 0.55875,7.1184 0.55875,15.81866 l 0,15.81867 -13.34412,7.68133 c -7.33927,4.22474 -13.63927,7.68134 -14,7.68134 -0.36074,0 -0.65236,-7.0875 -0.64807,-15.75 z"
       id="path3511"
       inkscape:connector-curvature="0"
       transform="translate(-105.52723,768.03167)" />
    <path
       style="fill:#8080ff;stroke:#000000"
       d="m 247.41535,247.58155 0.003,-15.75 13.17501,-7.5 c 7.24625,-4.125 13.54469,-7.65 13.99652,-7.83333 0.45183,-0.18334 0.82151,6.86063 0.82151,15.65326 l 0,15.9866 -13.36194,7.59674 c -7.34906,4.1782 -13.64906,7.59673 -14,7.59673 -0.35093,0 -0.63649,-7.0875 -0.63458,-15.75 z"
       id="path3513"
       inkscape:connector-curvature="0"
       transform="translate(-105.52723,768.03167)" />
    <path
       style="fill:#8080ff;stroke:#000000"
       d="m 247.41187,212.49426 0,-16.00395 14,-8.01896 14,-8.01896 -0.0218,16.18958 -0.0218,16.18958 -13.1384,7.5 c -7.22611,4.125 -13.51632,7.65 -13.97823,7.83333 -0.46192,0.18334 -0.83985,-6.86844 -0.83985,-15.67062 z"
       id="path3515"
       inkscape:connector-curvature="0"
       transform="translate(-105.52723,768.03167)" />
    <path
       style="fill:#8080ff;stroke:#000000"
       d="m 247.41856,177.16311 0.007,-16.33156 6.74331,-3.7384 c 3.70882,-2.05612 10.00581,-5.57799 13.99331,-7.82637 l 7.25,-4.08797 0,15.98443 0,15.98443 -10.75,6.22502 c -5.9125,3.42376 -12.2125,7.10184 -14,8.1735 l -3.25,1.94848 0.007,-16.33156 z"
       id="path3517"
       inkscape:connector-curvature="0"
       transform="translate(-105.52723,768.03167)" />
    <path
       style="fill:#8080ff;stroke:#000000"
       d="m 278.63655,159.23126 0.27532,-16.32771 12.5,-7.24542 c 6.875,-3.98499 12.8375,-7.26369 13.25,-7.28601 0.4125,-0.0223 0.75,7.06353 0.75,15.74631 l 0,15.78689 -9.75,5.5928 c -5.3625,3.07605 -11.44889,6.59812 -13.52532,7.82683 l -3.77531,2.23402 0.27531,-16.32771 z"
       id="path3519"
       inkscape:connector-curvature="0"
       transform="translate(-105.52723,768.03167)" />
    <path
       style="fill:#8080ff;stroke:#000000"
       d="m 278.41187,194.4438 0,-15.88775 13.25,-7.607 13.25,-7.607 0.27627,15.66847 c 0.15196,8.61767 -0.073,15.99963 -0.5,16.40438 -1.04099,0.98686 -25.09198,14.91665 -25.75487,14.91665 -0.28677,0 -0.5214,-7.14949 -0.5214,-15.88775 z"
       id="path3521"
       inkscape:connector-curvature="0"
       transform="translate(-105.52723,768.03167)" />
    <path
       style="fill:#8080ff;stroke:#000000"
       d="m 278.44872,230.13823 0.0369,-16.30668 13.46315,-7.68461 13.46315,-7.6846 -2.6e-4,16.1846 -2.7e-4,16.18461 -9.24973,5.23756 c -5.08736,2.88065 -11.16224,6.39366 -13.49974,7.80668 l -4.25,2.56912 0.0368,-16.30668 z"
       id="path3523"
       inkscape:connector-curvature="0"
       transform="translate(-105.52723,768.03167)" />
    <path
       style="fill:#f9f9f9;stroke:#000000"
       d="m 139.59979,133.32755 c -7.32164,-4.28275 -13.49586,-7.9706 -13.72047,-8.19522 -0.35002,-0.35002 8.23273,-5.50311 24.0921,-14.46491 l 4.05955,-2.29397 13.94045,8.06353 c 7.66725,4.43494 14.05932,8.18189 14.20461,8.32655 0.36995,0.36834 -27.84928,16.59252 -28.62844,16.45944 -0.34964,-0.0597 -6.62616,-3.61266 -13.9478,-7.89542 z"
       id="path3450"
       inkscape:connector-curvature="0"
       transform="translate(-105.52723,768.03167)" />
    <path
       style="fill:#f9f9f9;stroke:#000000"
       d="m 171.0316,115.90665 c -7.08415,-4.0896 -13.24405,-7.80452 -13.68867,-8.25537 -0.44463,-0.45085 5.51333,-4.47409 13.2399,-8.94053 l 14.0483,-8.1208 13.89037,8.01513 c 7.6397,4.40832 13.8888,8.28768 13.88689,8.6208 -0.004,0.6275 -25.57918,15.40913 -27.44318,15.86104 -0.57934,0.14045 -6.84946,-3.09067 -13.93361,-7.18027 z"
       id="path3452"
       inkscape:connector-curvature="0"
       transform="translate(-105.52723,768.03167)" />
    <path
       style="fill:#f9f9f9;stroke:#000000"
       d="m 200.66187,97.588006 c -7.2875,-4.238149 -13.24843,-7.94214 -13.24652,-8.231091 0.006,-0.888723 26.39979,-15.525366 27.99652,-15.525366 1.55782,0 27.93362,14.618637 27.966,15.5 0.0299,0.814111 -26.7293,16.001721 -28.15725,15.981091 -0.71981,-0.0104 -7.27125,-3.48649 -14.55875,-7.724634 z"
       id="path3454"
       inkscape:connector-curvature="0"
       transform="translate(-105.52723,768.03167)" />
    <path
       style="fill:#f9f9f9;stroke:#000000"
       d="m 231.11117,115.18177 -13.8007,-8.06327 13.8007,-8.007469 c 7.59038,-4.404111 14.2507,-8.018225 14.8007,-8.031365 0.55,-0.01314 7.22386,3.59051 14.8308,8.00811 l 13.83079,8.032004 -9.33079,5.4543 c -16.84114,9.84446 -18.49673,10.75793 -19.41866,10.71421 -0.50168,-0.0238 -7.12246,-3.67172 -14.71284,-8.10652 z"
       id="path3456"
       inkscape:connector-curvature="0"
       transform="translate(-105.52723,768.03167)" />
    <path
       style="fill:#f9f9f9;stroke:#000000"
       d="m 200.7877,133.08531 -14.12417,-8.20518 14.34521,-8.2892 14.34521,-8.28919 14.02896,8.1183 c 7.71593,4.46506 14.02896,8.2629 14.02896,8.43964 0,0.34531 -27.6479,16.4856 -28.18073,16.45134 -0.1756,-0.0113 -6.67515,-3.71285 -14.44344,-8.22571 z"
       id="path3458"
       inkscape:connector-curvature="0"
       transform="translate(-105.52723,768.03167)" />
    <path
       style="fill:#f9f9f9;stroke:#000000"
       d="m 170.87886,151.21135 c -7.68184,-4.43622 -14.11018,-8.20468 -14.28519,-8.37436 -0.31558,-0.30597 13.71138,-8.72419 23.3182,-13.99432 l 5,-2.74291 13.71315,7.86589 c 7.54223,4.32625 13.72973,8.16583 13.75,8.53241 0.0203,0.36659 -5.25065,3.69766 -11.71315,7.40239 -6.4625,3.70473 -12.66485,7.33007 -13.78301,8.05632 -1.82585,1.18589 -3.45618,0.49856 -16,-6.74542 z"
       id="path3460"
       inkscape:connector-curvature="0"
       transform="translate(-105.52723,768.03167)" />
    <path
       style="fill:#f9f9f9;stroke:#000000"
       d="m 200.68101,168.55312 c -7.27697,-4.24686 -13.23596,-7.94657 -13.24219,-8.22157 -0.0222,-0.98088 27.09901,-16.12101 28.32744,-15.81349 1.85173,0.46355 27.64173,15.2291 27.62037,15.81349 -0.0281,0.7674 -26.12626,15.46979 -27.90735,15.72157 -0.86208,0.12187 -7.5213,-3.25313 -14.79827,-7.5 z"
       id="path3462"
       inkscape:connector-curvature="0"
       transform="translate(-105.52723,768.03167)" />
    <path
       style="fill:#f9f9f9;stroke:#000000"
       d="m 231.62015,150.86929 -14.29172,-8.28268 14.04493,-8.12753 c 7.7247,-4.47014 14.29965,-8.12753 14.61099,-8.12753 0.31133,0 6.87209,3.65543 14.57945,8.12317 l 14.01339,8.12317 -8.83266,5.16259 c -4.85796,2.83942 -11.30766,6.56858 -14.33266,8.28703 l -5.5,3.12446 -14.29172,-8.28268 z"
       id="path3464"
       inkscape:connector-curvature="0"
       transform="translate(-105.52723,768.03167)" />
    <path
       style="fill:#f9f9f9;stroke:#000000"
       d="m 262.58528,133.40296 c -7.32962,-4.29397 -13.31769,-8.13587 -13.30683,-8.53756 0.0109,-0.40168 6.18299,-4.29566 13.71583,-8.65327 l 13.69607,-7.92293 14.11076,8.16067 c 7.76092,4.48837 14.2088,8.23344 14.32862,8.32237 0.30062,0.22313 -28.21023,16.57401 -28.76846,16.49862 -0.24717,-0.0334 -6.44636,-3.57394 -13.77599,-7.8679 z"
       id="path3466"
       inkscape:connector-curvature="0"
       transform="translate(-105.52723,768.03167)" />
  </g>
</svg>
